<svg width="1600" height="900" viewBox="0 0 1600 900" fill="none" xmlns="http://www.w3.org/2000/svg">
  <rect width="1600" height="900" fill="#09090B"/>
  <ellipse cx="371" cy="208" rx="326" ry="224" fill="#00F0FF" fill-opacity="0.12"/>
  <ellipse cx="1220" cy="108" rx="268" ry="180" fill="#CCFF00" fill-opacity="0.08"/>
  <ellipse cx="802" cy="468" rx="520" ry="280" fill="#111827" fill-opacity="0.7"/>
  <rect x="218" y="202" width="1164" height="496" rx="36" fill="url(#paint0_linear)"/>
  <rect x="219" y="203" width="1162" height="494" rx="35" stroke="rgba(255,255,255,0.08)"/>
  <path d="M362 600C470 484 600 428 748 428C896 428 1032 484 1160 600" stroke="#00F0FF" stroke-opacity="0.16" stroke-width="2"/>
  <path d="M448 612C534 530 636 490 754 490C872 490 980 530 1080 612" stroke="#CCFF00" stroke-opacity="0.14" stroke-width="2"/>
  <text x="290" y="326" fill="white" fill-opacity="0.5" font-family="monospace" font-size="24" letter-spacing="8">VIPAUTO161</text>
  <text x="290" y="390" fill="white" fill-opacity="0.9" font-family="Arial, sans-serif" font-size="76" font-weight="700">PREMIUM AUTO ELECTRONICS</text>
  <text x="290" y="442" fill="white" fill-opacity="0.32" font-family="Arial, sans-serif" font-size="28">Mobile hero fallback poster for reduced motion and initial paint.</text>
  <defs>
    <linearGradient id="paint0_linear" x1="800" y1="202" x2="800" y2="698" gradientUnits="userSpaceOnUse">
      <stop stop-color="#0F172A" stop-opacity="0.72"/>
      <stop offset="1" stop-color="#09090B" stop-opacity="0.96"/>
    </linearGradient>
  </defs>
</svg>
